<svg xmlns="http://www.w3.org/2000/svg" xmlns:xlink="http://www.w3.org/1999/xlink" width="105" height="74.031" viewBox="0 0 105 74.031"><defs><style>.a{fill:#efa500;font-size:18px;}.a,.g{font-family:ACaslonPro-Bold, Adobe Caslon Pro;font-weight:700;}.b{fill:url(#a);}.c{fill:url(#b);}.d{fill:url(#c);}.e{fill:url(#d);}.f{fill:#f8b300;}.g{fill:#001a33;font-size:21px;}</style><linearGradient id="a" x1="0.5" x2="0.5" y2="1" gradientUnits="objectBoundingBox"><stop offset="0" stop-color="#ffce4e"/><stop offset="0.255" stop-color="#fbbe20"/><stop offset="1" stop-color="#f8b300"/></linearGradient><linearGradient id="b" x1="0.5" x2="0.5" y2="1" gradientUnits="objectBoundingBox"><stop offset="0" stop-color="#f17907"/><stop offset="0.28" stop-color="#e56504"/><stop offset="1" stop-color="#d54b00"/></linearGradient><linearGradient id="c" x1="0.5" x2="0.5" y2="1" gradientUnits="objectBoundingBox"><stop offset="0" stop-color="#b7dc3f"/><stop offset="1" stop-color="#8faf26"/></linearGradient><linearGradient id="d" x1="0.5" x2="0.5" y2="1" gradientUnits="objectBoundingBox"><stop offset="0" stop-color="#18bff4"/><stop offset="1" stop-color="#198ede"/></linearGradient></defs><g transform="translate(7479.227 132.031)"><text class="a" transform="translate(-7473.227 -63)"><tspan x="0" y="0">fundooPush</tspan></text><g transform="translate(-7453.227 -132.031)"><g transform="translate(0)"><path class="b" d="M3423.283-1203.917a11.171,11.171,0,0,1,7.193-11.5c8.263-3.337,12.849,2.151,14.676,5.783a19.569,19.569,0,0,1,1.883,5.766H3442.7s-2.237-8.629-8.521-8.482c-5.367.123-7.386,6.56-7.29,8.531C3426.887-1203.828,3423.283-1203.917,3423.283-1203.917Z" transform="translate(-3403.57 1228.554)"/><path class="c" d="M3664.446-1225.89s-.684-6.167,2.671-10.5c4.16-5.366,11.167-3.844,11.167-3.844v3.648a6.835,6.835,0,0,0-7.555,2.118c-2.309,2.781-1.955,8.58-1.955,8.58Z" transform="translate(-3625.318 1250.575)"/><path class="d" d="M3250.285-1138.266s1.786-4.76,5.889-3.967a6.538,6.538,0,0,1,4.683,3.869l3.612.1s-2.277-6.478-8.561-6.781c-7.515-.36-9.309,6.813-9.309,6.813" transform="translate(-3241.145 1163.001)"/><ellipse class="e" cx="3.283" cy="3.337" rx="3.283" ry="3.337" transform="translate(7.539 9.03)"/><ellipse class="f" cx="4.353" cy="4.425" rx="4.353" ry="4.425" transform="translate(33.591)"/><path class="e" d="M3178.8-1183.49s3.411-.507,5.109,2.1c1.367,2.1.7,5.145.7,5.145l3.645-.033a10.2,10.2,0,0,0-2.156-7.19,9.383,9.383,0,0,0-7.3-2.969Z" transform="translate(-3178.8 1201.003)"/></g></g><g transform="translate(-7479.227 -100.638)"><text class="g" transform="translate(0 15)"><tspan x="0" y="0">BridgeLabz</tspan></text></g></g></svg>